<svg width="177" height="20" viewBox="0 0 177 20" fill="none" xmlns="http://www.w3.org/2000/svg">
<path d="M5.76312 19.5739H9.08509V4.71178H14.823V2.03007H0V4.71178H5.76312V19.5739Z" fill="#7857ED"/>
<path d="M22.2987 16.9925H22.349V17.5188C22.349 18.8221 23.1795 19.5739 24.6895 19.5739H26.8538V16.9925H26.3253C25.6458 16.9925 25.3941 16.7419 25.3941 16.0652V10.1504C25.3941 7.36842 23.7331 5.36341 19.5303 5.36341C15.3779 5.36341 13.4401 7.29323 13.2387 10.2506H16.5607C16.6614 8.7218 17.7939 7.86967 19.5807 7.86967C21.0655 7.86967 22.2232 8.47118 22.2232 9.72431C22.2232 10.6767 21.594 11.2281 20.2098 11.2281H17.97C15.2269 11.2281 12.7102 12.4311 12.7102 15.589C12.7102 18.4712 14.7991 20 17.4919 20C19.631 20 21.4178 19.0476 22.2987 16.9925ZM16.1077 15.4637C16.1077 14.386 16.8124 13.5589 18.4734 13.5088L19.5052 13.4586C20.9397 13.4085 21.745 12.9825 22.1728 12.1303H22.2232V13.4085C22.2232 16.2657 20.3608 17.4436 18.4734 17.4436C16.8124 17.4436 16.1077 16.5414 16.1077 15.4637Z" fill="#7857ED"/>
<path d="M28.4522 19.5739H31.6232V0H28.4522V19.5739Z" fill="#7857ED"/>
<path d="M40.4321 20C43.8547 20 46.2707 18.0952 46.8747 15.3383H43.603C43.1752 16.6667 42.0176 17.4937 40.4824 17.4937C38.3684 17.4937 37.0346 15.9398 36.9339 13.584H47.0508V12.1554C47.0508 7.7193 44.207 5.36341 40.4069 5.36341C36.4054 5.36341 33.5616 8.09524 33.5616 12.6817C33.5616 17.2431 36.3299 20 40.4321 20ZM36.9591 11.3033C37.1604 9.37343 38.2929 7.86967 40.4824 7.86967C42.6467 7.86967 43.8547 9.29824 43.8547 11.3033H36.9591Z" fill="#7857ED"/>
<path d="M48.9619 19.5739H52.1329V11.6792C52.1329 8.92231 53.6932 7.89474 55.2787 7.89474C56.839 7.89474 57.896 8.89724 57.896 11.3033V19.5739H61.067V10.9273C61.067 7.26817 59.2047 5.36341 56.386 5.36341C54.4734 5.36341 52.9634 6.26566 52.1329 7.89474H52.0826V5.78947H48.9619V19.5739Z" fill="#7857ED"/>
<path d="M68.5188 19.5739H72.1931V16.9925H69.601C68.544 16.9925 67.94 16.5414 67.94 15.3634V8.37093H72.1176V5.78947H67.94V2.03007H64.7438V5.78947H62.0762V8.37093H64.7438V15.8396C64.7438 18.3459 66.0525 19.5739 68.5188 19.5739Z" fill="#7857ED"/>
<path d="M79.0272 19.5739H82.3491V12.9574H86.9546C90.4779 12.9574 93.0197 11.0025 93.0197 7.5188C93.0197 4.06015 90.4779 2.03007 86.9546 2.03007H79.0272V19.5739ZM82.3491 10.2757V4.71178H86.2499C88.3136 4.71178 89.5971 5.81454 89.5971 7.5188C89.5971 9.22306 88.3136 10.2757 86.2499 10.2757H82.3491Z" fill="#7857ED"/>
<path d="M94.7983 19.5739H97.9692V11.6541C97.9692 9.39849 98.8501 8.37093 100.763 8.37093H102.675V5.78947H101.342C99.5044 5.78947 98.6236 6.59148 97.9692 7.96992H97.9189V5.78947H94.7983V19.5739Z" fill="#7857ED"/>
<path d="M109.878 20C113.779 20 116.9 17.3935 116.9 12.6817C116.9 7.96992 113.779 5.36341 109.878 5.36341C105.977 5.36341 102.857 7.96992 102.857 12.6817C102.857 17.3935 105.977 20 109.878 20ZM106.254 12.6817C106.254 9.49875 107.689 7.86967 109.878 7.86967C112.068 7.86967 113.502 9.49875 113.502 12.6817C113.502 15.8647 112.068 17.4937 109.878 17.4937C107.689 17.4937 106.254 15.8647 106.254 12.6817Z" fill="#7857ED"/>
<path d="M123.639 19.5739H127.314V16.9925H124.721C123.664 16.9925 123.06 16.5414 123.06 15.3634V8.37093H127.238V5.78947H123.06V2.03007H119.864V5.78947H117.197V8.37093H119.864V15.8396C119.864 18.3459 121.173 19.5739 123.639 19.5739Z" fill="#7857ED"/>
<path d="M134.763 20C138.663 20 141.784 17.3935 141.784 12.6817C141.784 7.96992 138.663 5.36341 134.763 5.36341C130.862 5.36341 127.741 7.96992 127.741 12.6817C127.741 17.3935 130.862 20 134.763 20ZM131.139 12.6817C131.139 9.49875 132.573 7.86967 134.763 7.86967C136.952 7.86967 138.387 9.49875 138.387 12.6817C138.387 15.8647 136.952 17.4937 134.763 17.4937C132.573 17.4937 131.139 15.8647 131.139 12.6817Z" fill="#7857ED"/>
<path d="M150.142 20C153.992 20 156.232 17.5439 156.635 14.5865H153.363C153.187 15.8897 152.18 17.4937 150.142 17.4937C147.952 17.4937 146.518 15.6642 146.518 12.6817C146.518 9.87469 147.751 7.86967 150.142 7.86967C152.23 7.86967 153.237 9.34837 153.363 11.0526H156.635C156.333 7.81955 154.118 5.36341 150.142 5.36341C145.738 5.36341 143.12 8.24561 143.12 12.6817C143.12 17.1178 145.939 20 150.142 20Z" fill="#7857ED"/>
<path d="M164.783 20C168.684 20 171.805 17.3935 171.805 12.6817C171.805 7.96992 168.684 5.36341 164.783 5.36341C160.883 5.36341 157.762 7.96992 157.762 12.6817C157.762 17.3935 160.883 20 164.783 20ZM161.159 12.6817C161.159 9.49875 162.594 7.86967 164.783 7.86967C166.973 7.86967 168.407 9.49875 168.407 12.6817C168.407 15.8647 166.973 17.4937 164.783 17.4937C162.594 17.4937 161.159 15.8647 161.159 12.6817Z" fill="#7857ED"/>
<path d="M173.752 19.5739H176.923V0H173.752V19.5739Z" fill="#7857ED"/>
</svg>
